<?xml version="1.0" encoding="UTF-8" standalone="no"?>
<svg
   xmlns:dc="http://purl.org/dc/elements/1.1/"
   xmlns:cc="http://creativecommons.org/ns#"
   xmlns:rdf="http://www.w3.org/1999/02/22-rdf-syntax-ns#"
   xmlns:svg="http://www.w3.org/2000/svg"
   xmlns="http://www.w3.org/2000/svg"
   xmlns:sodipodi="http://sodipodi.sourceforge.net/DTD/sodipodi-0.dtd"
   xmlns:inkscape="http://www.inkscape.org/namespaces/inkscape"
   viewBox="0 0 512 512"
   id="svg3001"
   version="1.1"
   inkscape:version="0.48.4 r9939"
   width="100%"
   height="100%"
   sodipodi:docname="damage.svg">
  <metadata
     id="metadata3011">
    <rdf:RDF>
      <cc:Work
         rdf:about="">
        <dc:format>image/svg+xml</dc:format>
        <dc:type
           rdf:resource="http://purl.org/dc/dcmitype/StillImage" />
      </cc:Work>
    </rdf:RDF>
  </metadata>
  <defs
     id="defs3009" />
  <sodipodi:namedview
     pagecolor="#ffffff"
     bordercolor="#666666"
     borderopacity="1"
     objecttolerance="10"
     gridtolerance="10"
     guidetolerance="10"
     inkscape:pageopacity="0"
     inkscape:pageshadow="2"
     inkscape:window-width="1920"
     inkscape:window-height="1018"
     id="namedview3007"
     showgrid="false"
     inkscape:zoom="1.3320312"
     inkscape:cx="100.2426"
     inkscape:cy="272.71802"
     inkscape:window-x="0"
     inkscape:window-y="27"
     inkscape:window-maximized="1"
     inkscape:current-layer="svg3001"
     inkscape:snap-page="true" />
  <path
     d="m 226.063,24.188 -4.063,34.53 32.688,25.626 23.75,-50.03 C 261.31862,26.524178 242.0063,24.586527 226.063,24.188 z M 166.75,61.093 c -24.248,2.93 -42.95,15.897 -58.875,33.812 l 0.03,0 96.407,62.594 z M 300.875,88.75 319.531,174.25 228.439,150.375 269,233.938 128.406,144.563 c -3.966,4.875 -7.7,9.97 -11.22,15.28 -28.794,43.465 -42.052,101.104 -42.905,156.72 40.122,19.627 63.843,40.14 74.032,61.562 9.157,19.25 5.475,39.06 -6.343,54.25 25.214,23.382 68.638,37.63 113.155,38.344 44.813,0.717 89.973,-12.083 118.625,-38.783 -6.033,-6.937 -10.412,-14.346 -12.5,-22.437 -2.8,-10.85 -0.952,-22.554 5.188,-33.28 11.757,-20.542 37.646,-39.263 80.062,-59.69 C 445.62,263.866 432.645,206.294 404,162.124 373.6727,125.43851 337.38261,97.16072 300.875,88.75 z m -119.28,168.844 c 27.75,0 50.25,22.5 50.25,50.25 0,27.75 -22.5,50.25 -50.25,50.25 -27.752,0 -50.25,-22.5 -50.25,-50.25 0,-27.75 22.498,-50.25 50.25,-50.25 z m 149.468,0 c 27.75,0 50.25,22.5 50.25,50.25 0,27.75 -22.5,50.25 -50.25,50.25 -27.75,0 -50.25,-22.5 -50.25,-50.25 0,-27.75 22.5,-50.25 50.25,-50.25 z m -74.75,86.125 c 13.74,29.005 24.652,58.023 30.062,87.03 -14.777,12.895 -41.26,14.766 -60.125,0 7.315,-29.007 16.12,-58.025 30.063,-87.03 z"
     id="path3005"
     style="fill:#ffffff"
     inkscape:connector-curvature="0"
     sodipodi:nodetypes="cccccccccccccccccccccsccccsssssssssscccc" />
</svg>
