<?xml version="1.0" encoding="UTF-8" standalone="no"?>
<svg
   xmlns:dc="http://purl.org/dc/elements/1.1/"
   xmlns:cc="http://creativecommons.org/ns#"
   xmlns:rdf="http://www.w3.org/1999/02/22-rdf-syntax-ns#"
   xmlns:svg="http://www.w3.org/2000/svg"
   xmlns="http://www.w3.org/2000/svg"
   xmlns:sodipodi="http://sodipodi.sourceforge.net/DTD/sodipodi-0.dtd"
   xmlns:inkscape="http://www.inkscape.org/namespaces/inkscape"
   viewBox="0 0 512 512"
   id="svg2"
   version="1.1"
   inkscape:version="0.48.4 r9939"
   width="100%"
   height="100%"
   sodipodi:docname="half-heart.svg">
  <metadata
     id="metadata12">
    <rdf:RDF>
      <cc:Work
         rdf:about="">
        <dc:format>image/svg+xml</dc:format>
        <dc:type
           rdf:resource="http://purl.org/dc/dcmitype/StillImage" />
      </cc:Work>
    </rdf:RDF>
  </metadata>
  <defs
     id="defs10" />
  <sodipodi:namedview
     pagecolor="#ffffff"
     bordercolor="#666666"
     borderopacity="1"
     objecttolerance="10"
     gridtolerance="10"
     guidetolerance="10"
     inkscape:pageopacity="0"
     inkscape:pageshadow="2"
     inkscape:window-width="1920"
     inkscape:window-height="1018"
     id="namedview8"
     showgrid="false"
     inkscape:zoom="1.3320312"
     inkscape:cx="256"
     inkscape:cy="256"
     inkscape:window-x="0"
     inkscape:window-y="27"
     inkscape:window-maximized="1"
     inkscape:current-layer="svg2" />
  <path
     d="m 367.844,23.563 c -1.25,-0.007 -2.497,0 -3.75,0.03 C 324.536,24.607 283.878,44.745 255.438,85.531 220.048,35.471 163.474,16.596 114.5,26.626 61.602,37.46 17.574,83.133 19.844,154.188 c 2.375,74.366 56.072,131.622 109.844,179.968 26.885,24.173 54.033,46.28 75.468,67 21.435,20.72 36.758,40.126 41.313,57.125 l 9.03,33.69 9,-33.69 c 3.988,-14.88 19.58,-34.12 41.594,-55.03 22.014,-20.91 49.996,-43.803 77.47,-68.78 54.944,-49.96 109.165,-108.878 106.905,-180.876 -2.19,-69.696 -45.2,-115.576 -96.75,-127.125 -8.95088,-1.671813 -18.12311,-2.838408 -25.874,-2.907 z"
     id="path6"
     inkscape:connector-curvature="0"
     style="fill:#ffffff"
     sodipodi:nodetypes="cccsccscccscccc" />
</svg>
