<?xml version="1.0" encoding="UTF-8" standalone="no"?>
<svg
   xmlns:dc="http://purl.org/dc/elements/1.1/"
   xmlns:cc="http://creativecommons.org/ns#"
   xmlns:rdf="http://www.w3.org/1999/02/22-rdf-syntax-ns#"
   xmlns:svg="http://www.w3.org/2000/svg"
   xmlns="http://www.w3.org/2000/svg"
   xmlns:sodipodi="http://sodipodi.sourceforge.net/DTD/sodipodi-0.dtd"
   xmlns:inkscape="http://www.inkscape.org/namespaces/inkscape"
   viewBox="0 0 512 512"
   id="svg2"
   version="1.1"
   inkscape:version="0.48.4 r9939"
   width="100%"
   height="100%"
   sodipodi:docname="range.svg">
  <metadata
     id="metadata12">
    <rdf:RDF>
      <cc:Work
         rdf:about="">
        <dc:format>image/svg+xml</dc:format>
        <dc:type
           rdf:resource="http://purl.org/dc/dcmitype/StillImage" />
      </cc:Work>
    </rdf:RDF>
  </metadata>
  <defs
     id="defs10" />
  <sodipodi:namedview
     pagecolor="#ffffff"
     bordercolor="#666666"
     borderopacity="1"
     objecttolerance="10"
     gridtolerance="10"
     guidetolerance="10"
     inkscape:pageopacity="0"
     inkscape:pageshadow="2"
     inkscape:window-width="1920"
     inkscape:window-height="1018"
     id="namedview8"
     showgrid="false"
     inkscape:zoom="1.3320312"
     inkscape:cx="256"
     inkscape:cy="256"
     inkscape:window-x="0"
     inkscape:window-y="27"
     inkscape:window-maximized="1"
     inkscape:current-layer="svg2" />
  <path
     d="m 226.063,24.22 -9.782,32.624 c 12.992,-2.652 26.423,-4.032 40.19,-4.032 10.475,0 20.766,0.82 30.81,2.376 l -9.405,-30.97 c -17.27011,0.01499 -34.54643,-0.0218 -51.813,0.002 z m 30.406,48.843 c -99.61464,-1.569263 -180.19,80.53 -180.19,180.156 0,99.624 80.563,180.155 180.19,180.155 99.624,0 183.94056,-83.34154 180.155,-180.156 C 432.50647,147.91334 359.86823,74.691883 256.469,73.063 z m 0,41.687 c 76.482,0 138.467,61.985 138.467,138.47 0,76.482 -61.985,138.5 -138.468,138.5 -76.485,0 -138.5,-62.018 -138.5,-138.5 0,-76.485 62.015,-138.47 138.5,-138.47 z m -0.033,38.938 c -54.96,0 -99.53,44.54 -99.53,99.5 0,54.96 44.57,99.5 99.53,99.5 54.96,0 99.5,-44.54 99.5,-99.5 0,-54.96 -44.54,-99.5 -99.5,-99.5 z m 0.032,39.687 c 33.052,-0.0152 59.842,26.79 59.842,59.844 0,33.052 -26.79,59.843 -59.843,59.843 -33.055,0 -59.80483,-26.79003 -59.845,-59.844 -0.0468,-38.52993 21.22331,-59.82519 59.846,-59.843 z m 0,30.906 c -15.99157,-0.21357 -28.97,12.947 -28.97,28.94 0,15.99 12.977,28.968 28.97,28.968 15.99,0 30.62989,-13.06696 28.936,-28.97 -1.79183,-16.82256 -16.42933,-28.77097 -28.936,-28.938 z M 114.905,395 l -27.844,92.875 46.876,0 20.28,-62.313 c -14.35,-8.54 -27.56,-18.833 -39.312,-30.562 z m 277.188,5.688 c -11.982,11.026 -25.324,20.595 -39.72,28.468 l 19.25,58.72 46.907,0 c -8.8188,-29.06038 -17.61453,-58.13004 -26.437,-87.188 z m -165.03,50.78 0,36.407 52.092,0 0,-35.53 c -7.45,0.84 -15.015,1.28 -22.687,1.28 -10.25474,-0.24659 -20.69599,-0.89509 -29.405,-2.157 z"
     id="path6"
     inkscape:connector-curvature="0"
     style="fill:#ffffff"
     sodipodi:nodetypes="ccscccsssssssssssssssssssssssssscccccccccccccccc" />
</svg>
