<?xml version="1.0" encoding="UTF-8" standalone="no"?>
<svg
   xmlns:dc="http://purl.org/dc/elements/1.1/"
   xmlns:cc="http://creativecommons.org/ns#"
   xmlns:rdf="http://www.w3.org/1999/02/22-rdf-syntax-ns#"
   xmlns:svg="http://www.w3.org/2000/svg"
   xmlns="http://www.w3.org/2000/svg"
   xmlns:sodipodi="http://sodipodi.sourceforge.net/DTD/sodipodi-0.dtd"
   xmlns:inkscape="http://www.inkscape.org/namespaces/inkscape"
   viewBox="0 0 512 512"
   id="svg3037"
   version="1.1"
   inkscape:version="0.48.4 r9939"
   width="100%"
   height="100%"
   sodipodi:docname="stopwatch.svg">
  <metadata
     id="metadata3047">
    <rdf:RDF>
      <cc:Work
         rdf:about="">
        <dc:format>image/svg+xml</dc:format>
        <dc:type
           rdf:resource="http://purl.org/dc/dcmitype/StillImage" />
      </cc:Work>
    </rdf:RDF>
  </metadata>
  <defs
     id="defs3045" />
  <sodipodi:namedview
     pagecolor="#ffffff"
     bordercolor="#666666"
     borderopacity="1"
     objecttolerance="10"
     gridtolerance="10"
     guidetolerance="10"
     inkscape:pageopacity="0"
     inkscape:pageshadow="2"
     inkscape:window-width="1920"
     inkscape:window-height="1018"
     id="namedview3043"
     showgrid="false"
     inkscape:zoom="1.3320312"
     inkscape:cx="255.99999"
     inkscape:cy="255.99999"
     inkscape:window-x="0"
     inkscape:window-y="27"
     inkscape:window-maximized="1"
     inkscape:current-layer="svg3037" />
  <path
     d="m 179.594,20.688 0,41.406 143.25,0 0,-41.407 c -47.74956,0.0075 -95.5022,-0.0109 -143.25,10e-4 z M 256.03,82 C 143.04,82 51.25,173.727 51.25,286.656 c 0,112.93 91.788,204.656 204.78,204.656 112.994,0 204.75,-91.728 204.75,-204.656 C 460.78,173.73 369.025,82 256.03,82 z m 0,35.625 c 93.41746,-0.68835 169.126,75.665 169.126,169.03 0,93.368 -75.706,169.564 -169.125,169.564 -93.417,0 -171.001386,-76.52692 -169.155,-169.564 2.049412,-103.26733 85.56173,-168.41405 169.154,-169.03 z m 76.19,20.28 -72.47,107.5 c 10.67,1.036 20.516,6.045 27.625,13.814 14.95454,-40.4354 29.88699,-80.88111 44.845,-121.314 z m -85.533,1.064 0,45.31 c 3.077,-0.275 6.196,-0.405 9.344,-0.405 3.155,0 6.263,0.13 9.345,0.406 l 0,-45.31 c -6.22949,-0.001 -12.46025,0.002 -18.689,-0.001 z m -88.53,36.655 -13.22,13.22 32.063,32.03 c 3.992,-4.784 8.432,-9.198 13.22,-13.188 -10.68356,-10.69039 -21.38378,-21.37154 -32.063,-32.062 z m 195.75,0 -32.063,32.063 c 4.786,3.99 9.196,8.403 13.187,13.187 l 32.064,-32.03 z m -98.344,81.22 c -2.08,0.01 -4.195,0.243 -6.313,0.686 -16.948,3.544 -27.7,20.005 -24.156,36.94 3.544,16.932 20.02,27.698 36.97,24.155 16.946,-3.543 27.7,-20.004 24.155,-36.938 -3.102,-14.816 -16.104,-24.925 -30.658,-24.843 z m -147.283,20.466 0,18.69 45.314,0 c -0.278,-3.08 -0.406,-6.192 -0.406,-9.344 0,-3.146 0.13,-6.27 0.406,-9.344 -15.10378,-0.015 -30.21376,0.0218 -45.314,-0.002 z m 250.157,0 c 0.277,3.075 0.438,6.197 0.438,9.344 0,3.153 -0.16,6.264 -0.438,9.344 l 45.344,0 0,-18.688 c -15.11467,0 -30.22933,0 -45.344,0 z m -60.062,6.72 c 0.993,10.522 -1.968,20.742 -7.813,28.937 l 124,19.092 C 375.83103,316.05568 337.10527,300.02862 298.375,284.03 z m -121.405,68.375 -32.032,32.03 13.218,13.22 32.063,-32.03 c -4.798,-4 -9.253,-8.424 -13.25,-13.22 z m 158.093,0 c -4,4.796 -8.423,9.22 -13.22,13.22 l 32.063,32.03 13.188,-13.22 -32.03,-32.03 z M 246.688,389 l 0,45.313 18.687,0 0,-45.313 c -3.082,0.278 -6.19,0.438 -9.344,0.438 -3.147,0 -6.266,-0.16 -9.342,-0.438 z"
     id="path3041"
     style="fill:#ffffff"
     inkscape:connector-curvature="0"
     sodipodi:nodetypes="cccccssssssssssccccccscccccccccccccccccccccccscccsccccccccccccccccccccccccscc" />
</svg>
