<?xml version="1.0" encoding="UTF-8" standalone="no"?>
<svg
   xmlns:dc="http://purl.org/dc/elements/1.1/"
   xmlns:cc="http://creativecommons.org/ns#"
   xmlns:rdf="http://www.w3.org/1999/02/22-rdf-syntax-ns#"
   xmlns:svg="http://www.w3.org/2000/svg"
   xmlns="http://www.w3.org/2000/svg"
   xmlns:sodipodi="http://sodipodi.sourceforge.net/DTD/sodipodi-0.dtd"
   xmlns:inkscape="http://www.inkscape.org/namespaces/inkscape"
   viewBox="0 0 512 512"
   id="svg2"
   version="1.1"
   inkscape:version="0.48.4 r9939"
   width="100%"
   height="100%"
   sodipodi:docname="sprint.svg">
  <metadata
     id="metadata12">
    <rdf:RDF>
      <cc:Work
         rdf:about="">
        <dc:format>image/svg+xml</dc:format>
        <dc:type
           rdf:resource="http://purl.org/dc/dcmitype/StillImage" />
      </cc:Work>
    </rdf:RDF>
  </metadata>
  <defs
     id="defs10" />
  <sodipodi:namedview
     pagecolor="#ffffff"
     bordercolor="#666666"
     borderopacity="1"
     objecttolerance="10"
     gridtolerance="10"
     guidetolerance="10"
     inkscape:pageopacity="0"
     inkscape:pageshadow="2"
     inkscape:window-width="1920"
     inkscape:window-height="1018"
     id="namedview8"
     showgrid="false"
     inkscape:zoom="1.3320312"
     inkscape:cx="256"
     inkscape:cy="256"
     inkscape:window-x="0"
     inkscape:window-y="27"
     inkscape:window-maximized="1"
     inkscape:current-layer="svg2" />
  <path
     d="M 169.53,16.344 259.345,88 337,92.28 l -1.03,18.657 -161.376,-8.906 -118.78,-4.905 227.28,68.03 -197.72,246.75 -14.53,-17.655 -49.22,96.625 248.69,-202.78 51.81,11.592 -38.78,40.594 L 270.5,329.5 213.22,413.625 444.843,273.47 328,241.06 428.22,159.342 c 1.132,0.46 2.3,0.898 3.5,1.22 23.324,6.248 49.764,-16.835 59.06,-51.533 9.298,-34.695 -2.08,-67.874 -25.405,-74.124 -23.325,-6.25 -49.765,16.802 -59.063,51.5 -1.467,5.476 -2.403,10.918 -2.875,16.22 C 325.46622,73.871175 247.49998,45.093123 169.53,16.344 z"
     id="path6"
     inkscape:connector-curvature="0"
     style="fill:#ffffff"
     sodipodi:nodetypes="ccccccccccccccccccccsccc" />
</svg>
