<?xml version="1.0" encoding="UTF-8" standalone="no"?>
<svg
   xmlns:dc="http://purl.org/dc/elements/1.1/"
   xmlns:cc="http://creativecommons.org/ns#"
   xmlns:rdf="http://www.w3.org/1999/02/22-rdf-syntax-ns#"
   xmlns:svg="http://www.w3.org/2000/svg"
   xmlns="http://www.w3.org/2000/svg"
   xmlns:sodipodi="http://sodipodi.sourceforge.net/DTD/sodipodi-0.dtd"
   xmlns:inkscape="http://www.inkscape.org/namespaces/inkscape"
   viewBox="0 0 512 512"
   id="svg2"
   version="1.1"
   inkscape:version="0.48.4 r9939"
   width="100%"
   height="100%"
   sodipodi:docname="resistance.svg">
  <metadata
     id="metadata12">
    <rdf:RDF>
      <cc:Work
         rdf:about="">
        <dc:format>image/svg+xml</dc:format>
        <dc:type
           rdf:resource="http://purl.org/dc/dcmitype/StillImage" />
      </cc:Work>
    </rdf:RDF>
  </metadata>
  <defs
     id="defs10" />
  <sodipodi:namedview
     pagecolor="#ffffff"
     bordercolor="#666666"
     borderopacity="1"
     objecttolerance="10"
     gridtolerance="10"
     guidetolerance="10"
     inkscape:pageopacity="0"
     inkscape:pageshadow="2"
     inkscape:window-width="1920"
     inkscape:window-height="1018"
     id="namedview8"
     showgrid="false"
     inkscape:zoom="1.3320312"
     inkscape:cx="255.99999"
     inkscape:cy="255.99999"
     inkscape:window-x="0"
     inkscape:window-y="27"
     inkscape:window-maximized="1"
     inkscape:current-layer="svg2" />
  <path
     d="m 17.664,56.484 77.523,129.942 86.754,-21.067 79.33,121.394 -78.918,-46.483 93.195,101.34 -64.182,10.81 53.05,18.783 c -36.484,34.27 -64.93,77.082 -79.313,124.158 l 33.88093,0.75073 c 19.42,-58.22 62.696,-104.89186 115.73,-139.08486 53.682,-34.606 102.69007,-40.36974 160.69607,-28.20274 l 0,-35.57113 c -12.93,-2.457 -26.01,-3.663 -39.13,-3.686 -28.257,-0.05 -56.664,5.316 -83.977,15.053 l -3.295,-60.925 -27.457,53.535 -30.445,-83.947 -7.63,67.797 -103.43,-162.6 -80.04,18.522 L 67.644932,26.417332 C 51.42786,25.047973 18.414733,44.326246 17.664,56.484 z m 314.96893,-3.639991 15.995,166.596001 57.285,-138.067001 -38.79,27.656001 z m -47.2068,47.988731 -28.48,28.934 29.095,64.132 c -0.20504,-31.02113 -0.40995,-62.0484 -0.615,-93.066 z m 162.55006,78.36813 -40.65,86.244 52.173,-42.435 c -3.83246,-14.60492 -7.69606,-29.20391 -11.523,-43.809 z m -392.316249,84.20946 35.464,34.78067 108.991269,17.00974 -64.67227,-47.06341 c -26.59286,-1.58317 -53.194559,-3.13942 -79.782999,-4.727 z m 117.023929,95.5026 -74.669999,0.637 -51.22,22.242 50.598,18.204 c 25.103249,-13.68259 50.186359,-27.40832 75.291999,-41.083 z m 37.57153,37.68373 -63.06006,31.8534 9.86693,28.69627 c 19.72972,-15.18132 33.46756,-45.36815 53.19313,-60.54967 z"
     id="path6"
     inkscape:connector-curvature="0"
     style="fill:#ffffff"
     sodipodi:nodetypes="cccccccccccccccccccccccccccccccccccccccccccccccccc" />
</svg>
