<?xml version="1.0" encoding="UTF-8" standalone="no"?>
<svg
   xmlns:dc="http://purl.org/dc/elements/1.1/"
   xmlns:cc="http://creativecommons.org/ns#"
   xmlns:rdf="http://www.w3.org/1999/02/22-rdf-syntax-ns#"
   xmlns:svg="http://www.w3.org/2000/svg"
   xmlns="http://www.w3.org/2000/svg"
   xmlns:sodipodi="http://sodipodi.sourceforge.net/DTD/sodipodi-0.dtd"
   xmlns:inkscape="http://www.inkscape.org/namespaces/inkscape"
   viewBox="0 0 512 512"
   style="height: 512px; width: 512px;"
   id="svg2"
   version="1.1"
   inkscape:version="0.91 r13725"
   sodipodi:docname="vision.svg">
  <metadata
     id="metadata12">
    <rdf:RDF>
      <cc:Work
         rdf:about="">
        <dc:format>image/svg+xml</dc:format>
        <dc:type
           rdf:resource="http://purl.org/dc/dcmitype/StillImage" />
      </cc:Work>
    </rdf:RDF>
  </metadata>
  <defs
     id="defs10" />
  <sodipodi:namedview
     pagecolor="#ffffff"
     bordercolor="#666666"
     borderopacity="1"
     objecttolerance="10"
     gridtolerance="10"
     guidetolerance="10"
     inkscape:pageopacity="0"
     inkscape:pageshadow="2"
     inkscape:window-width="1920"
     inkscape:window-height="1025"
     id="namedview8"
     showgrid="false"
     inkscape:zoom="1.3037281"
     inkscape:cx="181.34832"
     inkscape:cy="237.14277"
     inkscape:window-x="0"
     inkscape:window-y="25"
     inkscape:window-maximized="1"
     inkscape:current-layer="svg2" />
  <path
     d="m 258.20964,113.96638 c -193.993118,286.45267 -96.99656,143.22633 0,0 z m 0.001,41.28301 c -22.08748,-0.15451 -44.23317,1.98169 -66.36989,6.4377 -31.6511,20.86711 -52.48239,56.74134 -52.48239,97.57987 0,41.07813 21.07983,77.09231 53.04106,97.89559 21.75159,4.1918 43.55692,6.23619 65.32195,6.12198 20.80218,-0.10972 41.59091,-2.18545 62.27664,-6.19138 31.87837,-20.81673 52.9011,-56.80516 52.9011,-97.82619 0,-40.79374 -20.79432,-76.63327 -52.37489,-97.51045 -21.5489,-3.6556 -43.63157,-6.30721 -62.31358,-6.50712 z M 148.59519,173.4093 C 98.931964,190.29287 49.544163,219.05988 1.2278182,260.31714 49.072811,301.0594 98.837917,329.45806 149.26134,345.96656 c -19.25712,-23.68515 -30.82482,-53.86732 -30.82482,-86.6996 0,-32.44937 11.30573,-62.29454 30.15867,-85.8599 z m 215.17371,0.10297 c 18.79584,23.54966 30.05231,53.35342 30.05231,85.75465 0,32.79981 -11.53748,62.95511 -30.75207,86.62906 50.77947,-16.63726 100.54682,-45.1837 147.96189,-85.54417 -47.77335,-40.78367 -97.15667,-69.77124 -147.26438,-86.84066 z m -107.62157,19.45305 c 6.98758,-0.17068 13.72071,1.07145 20.04757,3.0789 -10.18836,5.1927 -17.18026,15.77516 -17.18026,27.99 0,17.34484 14.0756,31.42047 31.41933,31.42047 12.49475,0 23.28209,-7.31548 28.33933,-17.88003 2.35563,6.80382 3.63869,14.09129 3.63869,21.69337 0,36.59974 -29.66717,66.2669 -66.26689,66.2669 -36.59974,0 -66.88872,-29.6736 -66.26466,-66.26801 0.67133,-39.36622 37.62175,-65.60191 66.26689,-66.3016 z"
     id="path6"
     inkscape:connector-curvature="0"
     style="fill:#ffffff"
     sodipodi:nodetypes="ccccscccscccccscccsccccscsscssss" />
</svg>
