<?xml version="1.0" encoding="UTF-8" standalone="no"?>
<svg
   xmlns:dc="http://purl.org/dc/elements/1.1/"
   xmlns:cc="http://creativecommons.org/ns#"
   xmlns:rdf="http://www.w3.org/1999/02/22-rdf-syntax-ns#"
   xmlns:svg="http://www.w3.org/2000/svg"
   xmlns="http://www.w3.org/2000/svg"
   xmlns:sodipodi="http://sodipodi.sourceforge.net/DTD/sodipodi-0.dtd"
   xmlns:inkscape="http://www.inkscape.org/namespaces/inkscape"
   viewBox="0 0 512 512"
   id="svg2"
   version="1.1"
   inkscape:version="0.48.4 r9939"
   width="100%"
   height="100%"
   sodipodi:docname="palm.svg">
  <metadata
     id="metadata12">
    <rdf:RDF>
      <cc:Work
         rdf:about="">
        <dc:format>image/svg+xml</dc:format>
        <dc:type
           rdf:resource="http://purl.org/dc/dcmitype/StillImage" />
      </cc:Work>
    </rdf:RDF>
  </metadata>
  <defs
     id="defs10" />
  <sodipodi:namedview
     pagecolor="#ffffff"
     bordercolor="#666666"
     borderopacity="1"
     objecttolerance="10"
     gridtolerance="10"
     guidetolerance="10"
     inkscape:pageopacity="0"
     inkscape:pageshadow="2"
     inkscape:window-width="1920"
     inkscape:window-height="1018"
     id="namedview8"
     showgrid="false"
     inkscape:zoom="1.3320312"
     inkscape:cx="80.551176"
     inkscape:cy="283.26793"
     inkscape:window-x="0"
     inkscape:window-y="27"
     inkscape:window-maximized="1"
     inkscape:current-layer="svg2" />
  <path
     d="m 251.22,18.906 c -1.887,0.027 -3.794,0.16 -5.69,0.438 -8.594,1.26 -16.57,5.35 -20.874,9.656 l 26.125,158.688 -17.593,5.656 -73.03,-148 c -5.852,-0.847 -14.302,0.584 -22.063,4.75 -8.054,4.322 -14.445,11.026 -17.22,17.375 L 190,210.374 174.78,220.874 80.188,120.75 c -5.81,1.17 -13.124,5.42 -19.062,12.094 -6.188,6.955 -10.208,15.767 -11.063,22.72 l 124.688,134.53 0.125,0.125 c 16.778,17.487 19.067,46.66 15.03,83.06 -3.703,33.413 -13.688,73.89 -27.405,118.376 l 193.22,0 c -22.947,-62.09 -27.75,-117.916 -25.564,-162.5 -8.533,4.21 -16.923,7.637 -25.22,9.97 -18.127,5.096 -36.56,4.635 -52.748,-5.157 l 9.687,-16 c 11.263,6.812 23.092,7.355 38.03,3.155 14.94,-4.2 32.307,-13.533 51.345,-25.594 35.937,-22.766 77.844,-54.91 125.53,-78.186 -5.838,-11.33 -12.282,-17.258 -19.092,-19.938 -8.276,-3.257 -18.583,-2.462 -31.063,1.875 -19.073,6.63 -41.65,21.357 -64.594,35.564 l -14.25,-9.28 1.033,-4.626 2.312,-10.125 C 362.93615,156.26234 375.15608,101.03053 387.19,46.25 382.98,40.698 375.003,35.07 366.033,32.156 357.473,29.373 348.908,29.38 343.253,31.25 L 311.533,174.938 293.191,174.375 269.03,23.062 c -4.185,-2.424 -9.777,-3.982 -15.936,-4.156 -0.65332,-0.01678 -1.31904,-0.0054 -1.874,0 z"
     id="path6"
     style="fill:#ffffff"
     inkscape:connector-curvature="0"
     sodipodi:nodetypes="cccccccccccscccccccccccccsccccccccccccc" />
</svg>
