<?xml version="1.0" encoding="UTF-8" standalone="no"?>
<svg
   xmlns:dc="http://purl.org/dc/elements/1.1/"
   xmlns:cc="http://creativecommons.org/ns#"
   xmlns:rdf="http://www.w3.org/1999/02/22-rdf-syntax-ns#"
   xmlns:svg="http://www.w3.org/2000/svg"
   xmlns="http://www.w3.org/2000/svg"
   xmlns:sodipodi="http://sodipodi.sourceforge.net/DTD/sodipodi-0.dtd"
   xmlns:inkscape="http://www.inkscape.org/namespaces/inkscape"
   viewBox="0 0 512 512"
   id="svg2"
   version="1.1"
   inkscape:version="0.48.4 r9939"
   width="100%"
   height="100%"
   sodipodi:docname="spirit.svg">
  <metadata
     id="metadata12">
    <rdf:RDF>
      <cc:Work
         rdf:about="">
        <dc:format>image/svg+xml</dc:format>
        <dc:type
           rdf:resource="http://purl.org/dc/dcmitype/StillImage" />
      </cc:Work>
    </rdf:RDF>
  </metadata>
  <defs
     id="defs10" />
  <sodipodi:namedview
     pagecolor="#ffffff"
     bordercolor="#666666"
     borderopacity="1"
     objecttolerance="10"
     gridtolerance="10"
     guidetolerance="10"
     inkscape:pageopacity="0"
     inkscape:pageshadow="2"
     inkscape:window-width="1920"
     inkscape:window-height="1018"
     id="namedview8"
     showgrid="false"
     inkscape:zoom="1.3320312"
     inkscape:cx="256"
     inkscape:cy="256"
     inkscape:window-x="0"
     inkscape:window-y="27"
     inkscape:window-maximized="1"
     inkscape:current-layer="svg2" />
  <path
     d="M257.65 19.033l-47.552 85.598c-51.53 16.016-91.8 57.678-105.877 110.026L33.407 252.25l69.276 38.486c5.942 26.33 18.456 50.18 35.722 69.737 5.63-7.952 12.438-15.05 20.547-21.162-19.19-22.513-30.794-51.682-30.794-83.51 0-71.074 57.838-128.488 128.912-128.488 71.077 0 128.49 57.412 128.49 128.49 0 30.006-10.234 57.65-27.408 79.583 8.525 5.88 15.612 12.795 21.413 20.592 15.176-18.532 26.235-40.563 31.77-64.692l70.263-39.035-71.826-38.13c-14.312-52.475-54.968-94.123-106.856-109.825L257.65 19.033zm.266 150.33c-17.56 0-33.686 9.02-45.902 24.647-12.217 15.626-20.09 37.754-20.09 62.373 0 26.12 9.218 49.343 22.846 65.148l10.14 11.76-15.14 3.452c-38.027 8.67-55.962 26.396-66.48 54.268-9.788 25.934-11.75 61.67-11.99 104.236h254.473c-.047-42.74-.66-79.348-9.683-105.814-9.693-28.432-27.11-46.38-67.99-54.38l-15.272-2.99 9.817-12.076c12.778-15.718 21.267-38.404 21.267-63.603 0-24.62-7.875-46.747-20.092-62.373-12.216-15.626-28.343-24.647-45.902-24.647h-.002z"
     id="path6"
     fill="#fff"
     style="fill:#ffffff" />
</svg>
