<?xml version="1.0" encoding="UTF-8" standalone="no"?>
<svg
   xmlns:dc="http://purl.org/dc/elements/1.1/"
   xmlns:cc="http://creativecommons.org/ns#"
   xmlns:rdf="http://www.w3.org/1999/02/22-rdf-syntax-ns#"
   xmlns:svg="http://www.w3.org/2000/svg"
   xmlns="http://www.w3.org/2000/svg"
   xmlns:sodipodi="http://sodipodi.sourceforge.net/DTD/sodipodi-0.dtd"
   xmlns:inkscape="http://www.inkscape.org/namespaces/inkscape"
   viewBox="0 0 512 512"
   id="svg2"
   version="1.1"
   inkscape:version="0.48.4 r9939"
   width="100%"
   height="100%"
   sodipodi:docname="cavalry.svg">
  <metadata
     id="metadata12">
    <rdf:RDF>
      <cc:Work
         rdf:about="">
        <dc:format>image/svg+xml</dc:format>
        <dc:type
           rdf:resource="http://purl.org/dc/dcmitype/StillImage" />
      </cc:Work>
    </rdf:RDF>
  </metadata>
  <defs
     id="defs10" />
  <sodipodi:namedview
     pagecolor="#ffffff"
     bordercolor="#666666"
     borderopacity="1"
     objecttolerance="10"
     gridtolerance="10"
     guidetolerance="10"
     inkscape:pageopacity="0"
     inkscape:pageshadow="2"
     inkscape:window-width="1920"
     inkscape:window-height="1018"
     id="namedview8"
     showgrid="false"
     inkscape:zoom="1.8837767"
     inkscape:cx="407.04574"
     inkscape:cy="169.87985"
     inkscape:window-x="0"
     inkscape:window-y="27"
     inkscape:window-maximized="1"
     inkscape:current-layer="svg2" />
  <path
     d="m 258.962,29.14 c -3.21,0.063 -6.68,1.158 -10.303,3.4 -5.798,3.584 -11.47,10.14 -14.872,18.715 -3.4,8.575 -3.767,17.236 -2.004,23.82 1.763,6.585 5.248,10.765 9.83,12.583 4.582,1.817 9.986,1.165 15.784,-2.42 5.797,-3.586 11.467,-10.143 14.87,-18.717 3.4,-8.573 3.767,-17.235 2.005,-23.82 -1.763,-6.584 -5.25,-10.764 -9.832,-12.58 -1.88181,-0.601934 -3.82447,-1.000354 -5.478,-0.981 z m 83.428,36.012 c -8.823,13.437 -17.545,27.577 -36.268,45.2 -1.07335,1.36703 -2.15866,1.67162 -3.752,2.116 -9.165,2.554 -19,3.7 -28.863,4.48 -0.54,5.822 -1.76,11.47 -3.492,16.946 14.814,0.187 28.827,-0.778 41.297,-4.62 18.26,-17.188 36.623,-35.375 44.685,-56.7 z m -133.135,31.58 c -2.13511,0.192255 -4.14186,1.310968 -5.549,2.146 -11.898,12.29 -14.007,33.196 -0.867,57.082 5.73,10.42 18.094,18.277 33.66,23.58 13.165,4.485 28.138,7.013 41.808,8.51 l 3.71,-13.443 c -6.24,-1.808 -14.008,-3.65 -22.142,-6.082 -11.813,-3.53 -24.576,-8.437 -34.355,-18.432 -4.45261,-6.94695 -6.14961,-15.77791 -6.246,-23.234 -0.037,-7.045 0.813,-15.254 2.02,-24.023 -3.345,-2.203 -6.258,-4.21 -8.39,-5.088 -1.26768,-0.428485 -2.53916,-0.994475 -3.649,-1.016 z m 29.242,12.676 c -0.806,6.653 -1.25,12.573 -1.226,17.36 0.035,6.717 1.526,10.814 1.69,11.21 1.988,1.936 4.304,3.67 6.87,5.24 4.536,-8.52 8.03,-16.96 9.363,-25.23 -5.56582,-2.85961 -11.13095,-5.72128 -16.697,-8.58 z m 202.955,36.5 c -38.698,0.407 -97.748,25.527 -127.31,46.75 l 21.93,26.664 c 23.08,-25.157 50.67,-42.282 78.29,-49.248 28.02,-7.068 56.45,-3.25 78.33,13.597 1.784,-1.8 2.504,-3.56 2.694,-5.432 0.305,-3.01 -0.998,-7.446 -4.865,-12.283 -7.734,-9.675 -24.947,-19.342 -45.388,-20.008 -1.28654,-0.0335 -2.5866,-0.0497 -3.681,-0.04 z m -259.16,8.734 c -6.568,16.39 -10.208,33.35 -7.805,47.883 2.263,13.104 8.145,17.46 18.125,21.94 9.99,4.483 23.807,7.117 36.907,14.036 l 6.466,3.417 -2.022,7.03 c -5.67,19.72 -14.65,38.776 -28.312,56.41 8.66,10.85 24.016,19.95 40.84,29.016 l 6.138,-10.893 -17.434,-29.078 4.14,-4.914 c 10.787,-12.804 16.836,-38.882 20.882,-55.754 -7.692,-7.7 -25.79,-16.08 -42.803,-28.55 l -6.36,-4.66 3.784,-6.917 c 0.52,-0.952 1.076,-1.906 1.62,-2.86 -12.188,-5.97 -22.86,-14.237 -29.39,-26.11 -1.823,-3.313 -3.407,-6.652 -4.778,-9.995 z m 260.135,29.922 c -7.587,-0.093 -15.517,0.908 -23.664,2.963 -26.07,6.576 -53.767,24.346 -75.986,51.377 l -6.952,8.457 -33.34,-40.54 c -1.77,0.288 -3.426,0.55 -5.21,0.842 9.908,16.11 16.95,31.17 25.693,40.888 5.715,6.352 11.743,10.584 20.38,12.742 8.025,2.006 18.66,2.104 33.263,-1.126 -2.695,-7.855 -2.26,-16.004 -0.318,-23.077 2.52,-9.172 7.08,-17.28 10.78,-24.534 l 16.035,8.184 c -2.167,4.244 -4.322,8.392 -6.112,12.324 5.102,-0.272 13.1,-0.745 20.61,-1.246 8.984,-0.6 14.34,-0.982 17.38,-1.197 1.703,-3.57 3.562,-6.718 5.905,-9.497 3.513,-4.17 8.686,-7.383 14.256,-8.108 1.392,-0.18 2.764,-0.257 4.13,-0.234 6.8,0.114 13.423,2.692 21.293,6.686 1.867,-6.108 3.71,-12.142 5.54,-18.045 -14.20599,-10.4597 -29.24343,-16.5023 -43.683,-16.859 z M 277.92,210.86 c -4.448,0.743 -8.952,1.51 -13.448,2.27 5.022,3.758 9.534,8.032 13.05,13.293 l 2.204,3.297 -0.948,3.852 c -3.357,13.658 -7.853,41.85 -21.802,62.15 l 16.474,27.48 -14.802,26.26 c 6.94,-1.8 13.538,-4.246 19.607,-7.447 l 11,-5.8 2.074,12.26 c 5.978,35.36 -13.102,68.48 -22.475,99.294 6.508,9.05 12.247,14.98 17.275,20.388 4.097,4.407 8.004,9.006 10.654,14.683 l 28.254,0 c -1.863,-9.857 -5.227,-15.497 -17.834,-26.75 l -5.578,-4.98 3.87,-6.396 c 15.287,-25.248 24.903,-82.92 28.925,-111.46 l 0.92,-6.526 6.503,-1.092 c 10.253,-1.72 16.833,-5.857 22.162,-11.826 5.33,-5.97 9.233,-14.076 12.258,-23.29 1.334,-4.067 2.448,-8.31 3.478,-12.62 -16.163,3.494 -29.45,3.68 -40.754,0.855 -12.36,-3.088 -21.957,-9.893 -29.4,-18.164 -13.70315,-15.7218 -22.25086,-35.01089 -31.667,-49.731 z m -108.337,19.524 c -14.047,2.79 -27.408,5.57 -39.43,8.29 -12.594,4.275 -20.655,10.807 -26.92,19.765 -6.32,9.03 -10.644,20.798 -14.083,34.75 -6.85,27.778 -10.026,63.737 -23.073,100.858 l -17.465,65.434 c 3.948,3.74 7.722,6.273 11.717,9.855 3.488,3.13 6.69,7.757 8.58,13.504 l 23.447,0 c 0.593,-9.5 -2.71,-19.834 -10.856,-26.5 l -5.18,-4.235 26.142,-62.953 5.35,-0.537 c 21.24,-2.133 40.548,-26.11 51.19,-40.262 l 3.75,-4.982 5.982,1.758 c 22.6,6.637 49.11,10.156 73.326,7.377 -21.107,-11.086 -43.545,-22.54 -55.405,-43.017 l -3.175,-5.483 4.09,-4.84 c 12.58,-14.873 20.877,-30.868 26.6,-47.8 -8.712,-3.39 -18.953,-6.002 -28.93,-10.48 -5.91145,-3.10572 -11.62708,-6.60666 -15.657,-10.502 z m 288.38,0.46 c -0.19,-0.005 -0.353,0.002 -0.493,0.02 -1.118,0.146 -1.406,0.185 -2.817,1.858 -1.352,1.604 -3.214,4.944 -5.216,9.785 -1.614,5.982 -0.063,10.297 4.242,15.903 2.565,3.34 6.158,6.746 10.16,10.117 4.106,-10.06 7.79,-20.716 11.25,-31.467 -9.026,-4.414 -14.86,-6.17 -17.128,-6.217 z m -26.897,18.09 c -4.126,0.288 -5.917,0.422 -12.262,0.845 -10.82,0.72 -21.303,1.44 -26.12,1.497 0.44958,3.33323 2.23886,5.36548 3.272,8.069 0.627,1.807 1.2,3.502 1.744,5.15 2.49,4.435 9.938,11.22 20.264,16.535 10.333,5.317 23.014,9.548 34.29,11.682 1.334,-2.325 2.624,-4.727 3.876,-7.19 -5.863,-4.615 -11.877,-9.832 -16.727,-16.148 -4.34,-5.652 -7.67,-12.72 -8.337,-20.44 z m -347.57,7.306 c -5.687,2.507 -11.285,5.163 -16.114,7.74 -6.134,3.273 -10.633,6.54 -12.37,8.03 -4.556,15.79 -6.52,30.088 -11.78,44.884 -4.72,13.276 -12.487,26.58 -26.66,40.11 11.624,10 23.234,16.21 37.47,15.316 8.202,-29.22 11.38,-58.08 17.63,-83.44 3.419704,-11.59627 6.948052,-23.47055 11.824,-32.64 z m 320.41,37.61 c 0.224,5.742 -0.135,11.87 -0.944,19.608 -0.05,6.863 3.644,11.33 9.248,12.71 5.623,1.388 14.58,-0.295 24.822,-12.622 1.45643,-1.62265 2.99401,-3.2816 4.26,-4.798 -10.776,-2.654 -21.76,-6.668 -31.562,-11.71 -1.99,-1.025 -3.925,-2.093 -5.825,-3.19 z m -27.463,33.017 c -6.36,6.718 -14.816,11.936 -25.082,14.857 4.65675,5.87789 10.19652,11.72734 15.299,17.451 l -8.665,25.655 -14.53,3.216 c -1.706,8.07 -3.678,16.264 -5.95,24.278 0.423,0.08 0.85,0.17 1.27,0.246 10.442,1.892 19.172,1.915 26.915,-1.684 17.515,-18.86 28.118,-31.565 31.95,-53.44 -1.87,-7.903 -10.127,-20.008 -19.666,-29.138 -0.512,-0.49 -1.026,-0.967 -1.54,-1.44 z m -210.993,42.66 c -5.333,6.792 -12.013,14.51 -20.16,21.164 16.307,31.444 34.568,62.892 57.48,92.173 l 26.753,0 C 202.18397,446.70067 180.87424,405.63345 165.45,369.527 z"
     id="path6"
     style="fill:#ffffff"
     inkscape:connector-curvature="0"
     sodipodi:nodetypes="cccccccccccccccccccccscccccccccccccccccccccccccccccccccscccccccccsccccccccccccccccccccccccccccccccccccccccscccccccccccccccccccccccccccccccccccccccccccccccccccccccccccccccccccccccccccccccc" />
</svg>
